
<svg xmlns="http://www.w3.org/2000/svg" width="530" height="260" viewBox="0 0 530 260">
  <defs>
    <!-- Gradiente Cyan-to-Blue do Portfólio -->
    <linearGradient id="headerGradLangs" x1="0%" y1="0%" x2="100%" y2="100%">
      <stop offset="0%" stop-color="#13dfb3" />
      <stop offset="100%" stop-color="#2563eb" />
    </linearGradient>
    <filter id="shadow" x="-5%" y="-5%" width="110%" height="110%">
      <feDropShadow dx="0" dy="8" stdDeviation="6" flood-color="#000000" flood-opacity="0.5" />
    </filter>
  </defs>
  <style>
    .card { fill: #121214; stroke: #13dfb3; stroke-width: 1.5; rx: 12px; filter: url(#shadow); }
    .header-bar { fill: url(#headerGradLangs); height: 12px; rx: 12px 12px 0 0; }
    .title { font-family: 'Segoe UI', Ubuntu, sans-serif; font-size: 18px; font-weight: bold; fill: #13dfb3; }
    .subtitle { font-family: 'Segoe UI', Ubuntu, sans-serif; font-size: 13px; fill: #7c7c8a; }
    .label { font-family: 'Segoe UI', Ubuntu, sans-serif; font-size: 14px; fill: #e1e1e6; }
    .value { font-family: 'Segoe UI', Ubuntu, sans-serif; font-size: 14px; fill: #13dfb3; font-weight: bold; }
  </style>
  <rect width="530" height="260" class="card" />
  <rect width="530" height="12" class="header-bar" />
  
  <g transform="translate(25, 45)">
    <text x="0" y="0" class="title">Linguagens Mais Utilizadas</text>
    <text x="0" y="20" class="subtitle">Linguagens dominantes nos repositórios ativos</text>
  </g>
  <line x1="25" y1="80" x2="505" y2="80" stroke="#29292e" stroke-width="1" />

  <g transform="translate(25, 100)">
    <rect x="0" y="0" width="257.63583337918885" height="12" fill="#3572A5" rx="6" ry="6"  /><rect x="257.63583337918885" y="0" width="95.12098167611292" height="12" fill="#f1e05a"   /><rect x="257.63583337918885" y="0" width="4" height="12" fill="#f1e05a" /><rect x="352.7568150553018" y="0" width="65.4641501128047" height="12" fill="#e34c26"   /><rect x="352.7568150553018" y="0" width="4" height="12" fill="#e34c26" /><rect x="418.2209651681065" y="0" width="39.92296263687889" height="12" fill="#3178c6"   /><rect x="418.2209651681065" y="0" width="4" height="12" fill="#3178c6" /><rect x="458.14392780498537" y="0" width="21.85607219501458" height="12" fill="#b07219"  rx="6" ry="6" /><rect x="458.14392780498537" y="0" width="4" height="12" fill="#b07219" />
  </g>

  <g transform="translate(25, 135)">
    
      <g transform="translate(0, 0)">
        <circle cx="5" cy="5" r="5" fill="#3572A5" />
        <text x="18" y="9" class="label">Python</text>
        <text x="160" y="9" class="value">53.7%</text>
      </g>
    
      <g transform="translate(250, 0)">
        <circle cx="5" cy="5" r="5" fill="#f1e05a" />
        <text x="18" y="9" class="label">JavaScript</text>
        <text x="160" y="9" class="value">19.8%</text>
      </g>
    
      <g transform="translate(0, 28)">
        <circle cx="5" cy="5" r="5" fill="#e34c26" />
        <text x="18" y="9" class="label">HTML</text>
        <text x="160" y="9" class="value">13.6%</text>
      </g>
    
      <g transform="translate(250, 28)">
        <circle cx="5" cy="5" r="5" fill="#3178c6" />
        <text x="18" y="9" class="label">TypeScript</text>
        <text x="160" y="9" class="value">8.3%</text>
      </g>
    
      <g transform="translate(0, 56)">
        <circle cx="5" cy="5" r="5" fill="#b07219" />
        <text x="18" y="9" class="label">Java</text>
        <text x="160" y="9" class="value">4.6%</text>
      </g>
    
  </g>

  <line x1="25" y1="225" x2="505" y2="225" stroke="#29292e" stroke-width="1" />
  <text x="25" y="245" class="subtitle">Atualizado via GitHub Actions</text>
</svg>
  