
<svg xmlns="http://www.w3.org/2000/svg" width="530" height="260" viewBox="0 0 530 260">
  <defs>
    <!-- Gradiente Cyan-to-Blue do Portfólio -->
    <linearGradient id="headerGrad" x1="0%" y1="0%" x2="100%" y2="100%">
      <stop offset="0%" stop-color="#13dfb3" />
      <stop offset="100%" stop-color="#2563eb" />
    </linearGradient>
    <filter id="shadow" x="-5%" y="-5%" width="110%" height="110%">
      <feDropShadow dx="0" dy="8" stdDeviation="6" flood-color="#000000" flood-opacity="0.5" />
    </filter>
  </defs>
  <style>
    .card { fill: #121214; stroke: #13dfb3; stroke-width: 1.5; rx: 12px; filter: url(#shadow); }
    .header-bar { fill: url(#headerGrad); height: 12px; rx: 12px 12px 0 0; }
    .title { font-family: 'Segoe UI', Ubuntu, sans-serif; font-size: 18px; font-weight: bold; fill: #13dfb3; }
    .subtitle { font-family: 'Segoe UI', Ubuntu, sans-serif; font-size: 13px; fill: #7c7c8a; }
    .label { font-family: 'Segoe UI', Ubuntu, sans-serif; font-size: 14px; fill: #e1e1e6; font-weight: 500; }
    .value { font-family: 'Segoe UI', Ubuntu, sans-serif; font-size: 14px; fill: #13dfb3; font-weight: bold; }
    .icon { font-size: 16px; }
  </style>
  <rect width="530" height="260" class="card" />
  <rect width="530" height="12" class="header-bar" />
  <g transform="translate(25, 45)">
    <text x="0" y="0" class="title">Estatísticas do Git — Cesarcfw</text>
    <text x="0" y="20" class="subtitle">Dados de repositórios públicos e privados</text>
  </g>
  <line x1="25" y1="80" x2="505" y2="80" stroke="#29292e" stroke-width="1" />
  
  <!-- Coluna 1 -->
  <g transform="translate(25, 110)">
    <g transform="translate(0, 0)">
      <text x="0" y="0" class="icon">🔥</text>
      <text x="25" y="-3" class="label">Commits (Ano):</text>
      <text x="145" y="-3" class="value">198</text>
      <text x="195" y="-4" class="subtitle">(128 pub / 70 priv)</text>
    </g>
    <g transform="translate(0, 30)">
      <text x="0" y="0" class="icon">📁</text>
      <text x="25" y="-3" class="label">Repositórios:</text>
      <text x="145" y="-3" class="value">12</text>
      <text x="195" y="-4" class="subtitle">(8 pub / 4 priv)</text>
    </g>
    <g transform="translate(0, 60)">
      <text x="0" y="0" class="icon">🔀</text>
      <text x="25" y="-3" class="label">Pull Requests:</text>
      <text x="145" y="-3" class="value">11</text>
    </g>
    <g transform="translate(0, 90)">
      <text x="0" y="0" class="icon">❗</text>
      <text x="25" y="-3" class="label">Issues Abertas:</text>
      <text x="145" y="-3" class="value">0</text>
    </g>
  </g>
  
  <!-- Coluna 2 -->
  <g transform="translate(365, 110)">
    <g transform="translate(0, 0)">
      <text x="0" y="0" class="icon">⭐</text>
      <text x="25" y="-3" class="label">Estrelas:</text>
      <text x="110" y="-3" class="value">1</text>
    </g>
    <g transform="translate(0, 30)">
      <text x="0" y="0" class="icon">🍴</text>
      <text x="25" y="-3" class="label">Forks:</text>
      <text x="110" y="-3" class="value">0</text>
    </g>
    <g transform="translate(0, 60)">
      <text x="0" y="0" class="icon">👥</text>
      <text x="25" y="-3" class="label">Seguidores:</text>
      <text x="110" y="-3" class="value">14</text>
    </g>
  </g>
  
  <line x1="25" y1="225" x2="505" y2="225" stroke="#29292e" stroke-width="1" />
  <text x="25" y="245" class="subtitle">Atualizado via GitHub Actions</text>
</svg>
  